<svg id="Layer_1" data-name="Layer 1" xmlns="http://www.w3.org/2000/svg" xmlns:xlink="http://www.w3.org/1999/xlink" viewBox="0 0 75.53 46.77"><defs><clipPath id="clip-path" transform="translate(-229.83 -437.54)"><path d="M241.64,468.79c-0.8-3.07-.41-6.56,1.6-10.42a31.22,31.22,0,0,1,14.91-13.77,35.49,35.49,0,0,1,21.94-2.26c13.74,3.11,22.76,14.7,25.16,26.4a2.48,2.48,0,0,1,0,1.52,3.14,3.14,0,0,1-1.05,1.1c-8.32,6.27-18.61,11.06-29.76,12.1C260.8,484.72,244.36,479.19,241.64,468.79Z" fill="none"/></clipPath></defs><title>fish2</title><g id="Fish_2" data-name="Fish 2"><path d="M256.93,484.25a4.77,4.77,0,0,1-1.66,0,6.15,6.15,0,0,1-2.9-2,10,10,0,0,1-1.49-2.18,1.38,1.38,0,0,1,.77-2,2.81,2.81,0,0,1,1.62.24c1.87,0.69,6.82,1.87,7.93,3.31C262.94,483.87,258.74,484.06,256.93,484.25Z" transform="translate(-229.83 -437.54)" fill="#4d3f58"/><path d="M279.17,437.54a8.85,8.85,0,0,0,1.68,3.9,14.51,14.51,0,0,0-7.39-3.53c0.42,0.65,1,1.92,1.37,2.58A7.72,7.72,0,0,0,270,439a4.87,4.87,0,0,0-2.59.69,2.11,2.11,0,0,0-.92,2c0.11,0.89,1.17.8,1.38,0.79a46.59,46.59,0,0,1,8.07.48c2.06,0.3,3.08,1.65,8.19,1.94C289.74,445.24,280.36,438.26,279.17,437.54Z" transform="translate(-229.83 -437.54)" fill="#4d3f58"/><path d="M243.87,460.7a22.73,22.73,0,0,0-10.63-4.2,4.2,4.2,0,0,0-2.32.18,2.2,2.2,0,0,0-.89,2.88c0.4,1,1.23,1.88,1.73,2.87,1.43,2.85-.12,6.1.09,9.19a3,3,0,0,0,2.31,3,4.32,4.32,0,0,0,2.12-.39,20.88,20.88,0,0,0,4.85-2.66c1.05-.78,2.46-1.72,3.69-1.15Z" transform="translate(-229.83 -437.54)" fill="#4d3f58"/><g clip-path="url(#clip-path)"><path d="M241.64,468.79c-0.8-3.07-.41-6.56,1.6-10.42a31.22,31.22,0,0,1,14.91-13.77,35.49,35.49,0,0,1,21.94-2.26c13.74,3.11,22.76,14.7,25.16,26.4a2.48,2.48,0,0,1,0,1.52,3.14,3.14,0,0,1-1.05,1.1c-8.32,6.27-18.61,11.06-29.76,12.1C260.8,484.72,244.36,479.19,241.64,468.79Z" transform="translate(-229.83 -437.54)" fill="#6e517a"/><path d="M267.49,450.59a6.23,6.23,0,0,1-3,2,9,9,0,0,1-5-.33c-2.59-.79-5.24-2.38-5.43-4.68-0.3-3.66,5.56-8.63,10.09-7.76C269.69,440.85,270.25,447.39,267.49,450.59Z" transform="translate(-229.83 -437.54)" fill="#c0badb"/><path d="M251.49,458.68a4.07,4.07,0,0,1,.11,3.59,4.21,4.21,0,0,1-2.16,2.24,5.58,5.58,0,0,1-4.72-.41,4.93,4.93,0,0,1-2.57-3.18,3.53,3.53,0,0,1,1.49-3.56C245.95,455.76,250.23,456.41,251.49,458.68Z" transform="translate(-229.83 -437.54)" fill="#c0badb"/><path d="M259,482.3a6.25,6.25,0,0,1-5.37,0c-2.28-1-4-3-3.76-5.18,0.34-3.34,5.54-5.45,8.92-3.5C261.67,475.27,261.93,480.6,259,482.3Z" transform="translate(-229.83 -437.54)" fill="#c0badb"/><path d="M277.17,480.6a7.36,7.36,0,0,0,4.32,2,6.77,6.77,0,0,0,4.66-1.2,5.54,5.54,0,0,0-3.27-9.78C277,471.21,273.21,476.79,277.17,480.6Z" transform="translate(-229.83 -437.54)" fill="#c0badb"/><path d="M279.87,449.09A7.18,7.18,0,0,0,278,452.3c-0.74,3.23,2.33,6.6,6.2,7.24,7.25,1.19,13.23-5.56,10.25-11S283.39,445.34,279.87,449.09Z" transform="translate(-229.83 -437.54)" fill="#c0badb"/></g><path d="M301,462.44a2.55,2.55,0,0,1-.72,1.63,4,4,0,0,1-4,.41c-1.81-.69-3.11-2.34-2.91-4C294,455.27,301.35,458.33,301,462.44Z" transform="translate(-229.83 -437.54)" fill="#fff"/><path d="M273.82,467.66a8.38,8.38,0,0,1-10.68-3.25c-2.63-4.45,2.71-9.11,8.2-7.69C276.43,458,279.12,465.18,273.82,467.66Z" transform="translate(-229.83 -437.54)" fill="#c0badb"/><circle cx="66.94" cy="23.73" r="2.15" fill="#231f20"/><circle cx="68.17" cy="24.62" r="0.69" fill="#fff"/></g></svg>